<?xml version="1.0" encoding="utf-8"?>
<!-- Generator: Adobe Illustrator 17.0.0, SVG Export Plug-In . SVG Version: 6.00 Build 0)  -->
<!DOCTYPE svg PUBLIC "-//W3C//DTD SVG 1.1//EN" "http://www.w3.org/Graphics/SVG/1.1/DTD/svg11.dtd">
<svg version="1.1" id="Layer_1" xmlns="http://www.w3.org/2000/svg" xmlns:xlink="http://www.w3.org/1999/xlink" x="0px" y="0px"
	 width="96px" height="48px" viewBox="0 0 96 48" enable-background="new 0 0 96 48" xml:space="preserve">
<g>
	<path fill="#D1D3D4" d="M10.548,16.167c-4.8,6.667-0.51,9.452,13.683,10.8c9.126,0.867,9.726-0.467,13.659,1.667
		c3.933-5.667-0.667-10.2-11.259-9.6C13.556,19.774,10.548,16.167,10.548,16.167z"/>
	<path fill="#D1D3D4" d="M14.881,10.367c-3,4.433-1.11,6.66,9.281,7.646c6.681,0.635,7.121-0.342,10,1.22
		c2.88-4.149-0.488-7.468-8.243-7.028C16.347,12.747,14.881,10.367,14.881,10.367z"/>
	<path fill="#D1D3D4" d="M24,3.5c-4.733,2.333-6.771,6.694-1.585,7.534c3.334,0.54,5.208-0.416,6.645,0.913
		C31,9.75,30.5,6.875,27.777,6.377C23.963,5.68,24,3.5,24,3.5z"/>
	<path fill="#D1D3D4" d="M24.23,27.967c-2.515-0.239-4.712-0.524-6.61-0.867h-6.728l3.786,13.6h18.595l3.323-11.693
		C33.69,27.791,32.259,28.729,24.23,27.967z"/>
</g>
<linearGradient id="SVGID_1_" gradientUnits="userSpaceOnUse" x1="73.4359" y1="30.8342" x2="70.4795" y2="14.0678">
	<stop  offset="0" style="stop-color:#522E91"/>
	<stop  offset="1" style="stop-color:#AD208E"/>
</linearGradient>
<path fill="url(#SVGID_1_)" d="M58.576,16.167c-4.8,6.667-0.51,9.452,13.683,10.8c9.126,0.867,9.726-0.467,13.659,1.667
	c3.933-5.667-0.667-10.2-11.259-9.6C61.584,19.774,58.576,16.167,58.576,16.167z"/>
<linearGradient id="SVGID_2_" gradientUnits="userSpaceOnUse" x1="73.4365" y1="20.7769" x2="71.3389" y2="8.8803">
	<stop  offset="0" style="stop-color:#522E91"/>
	<stop  offset="1" style="stop-color:#AD208E"/>
</linearGradient>
<path fill="url(#SVGID_2_)" d="M62.909,10.367c-3,4.433-1.11,6.66,9.281,7.646c6.681,0.635,7.121-0.342,10,1.22
	c2.88-4.149-0.488-7.468-8.243-7.028C64.375,12.747,62.909,10.367,62.909,10.367z"/>
<linearGradient id="SVGID_3_" gradientUnits="userSpaceOnUse" x1="73.4894" y1="12.581" x2="71.8924" y2="3.5238">
	<stop  offset="0" style="stop-color:#522E91"/>
	<stop  offset="1" style="stop-color:#AD208E"/>
</linearGradient>
<path fill="url(#SVGID_3_)" d="M72.028,3.5c-4.733,2.333-6.771,6.694-1.585,7.534c3.334,0.54,5.208-0.416,6.645,0.913
	c1.94-2.196,1.44-5.071-1.282-5.569C71.991,5.68,72.028,3.5,72.028,3.5z"/>
<linearGradient id="SVGID_4_" gradientUnits="userSpaceOnUse" x1="74.2228" y1="41.9481" x2="71.2223" y2="24.931">
	<stop  offset="0" style="stop-color:#522E91"/>
	<stop  offset="1" style="stop-color:#AD208E"/>
</linearGradient>
<path fill="url(#SVGID_4_)" d="M81.301,40.7l3.323-11.693c-2.906-1.215-4.337-0.278-12.366-1.04
	c-2.515-0.239-4.712-0.524-6.61-0.867h-6.728l3.786,13.6"/>
</svg>
